<?xml version="1.0" encoding="iso-8859-1"?>
<!-- Uploaded to: SVG Repo, www.svgrepo.com, Generator: SVG Repo Mixer Tools -->
<svg fill="#fff" height="32px" width="32px" version="1.1" id="Layer_1" xmlns="http://www.w3.org/2000/svg" xmlns:xlink="http://www.w3.org/1999/xlink" 
	 viewBox="0 0 512 512" xml:space="preserve">
<g>
	<g>
		<path d="M488.727,93.091H356.849V23.273C356.849,10.42,346.429,0,333.576,0H178.424c-12.853,0-23.273,10.42-23.273,23.273v69.818
			H23.273C10.42,93.091,0,103.511,0,116.364v372.364C0,501.58,10.42,512,23.273,512h465.455C501.58,512,512,501.58,512,488.727
			V116.364C512,103.511,501.58,93.091,488.727,93.091z M201.697,46.545h108.606v46.545H201.697V46.545z M465.455,465.455H46.545
			V254.776l139.636,34.909v74.921c0,12.853,10.42,23.273,23.273,23.273h93.091c12.853,0,23.273-10.42,23.273-23.273v-74.921
			l139.636-34.909V465.455z M232.727,341.333v-46.545h46.545v46.545H232.727z M465.455,206.8l-165.772,41.443h-87.366L46.545,206.8
			v-67.164h131.879h155.152h131.879V206.8z"/>
	</g>
</g>
</svg>